<svg id="bin" xmlns="http://www.w3.org/2000/svg" viewBox="0 0 1858.45 1956.61"><defs><style>.cls-1{fill:#8ef47f;}.cls-2{fill:#8cf17e;}.cls-3{fill:#00b90d;}.cls-4{fill:#c0edc3;}.cls-5{fill:#006707;}.cls-6{fill:#006807;}.cls-7{fill:#77fe80;}.cls-8{fill:#014506;}.cls-9{fill:#004505;}.cls-10{fill:#6dfe77;}.cls-11{fill:#6efe78;}.cls-12{fill:#74fe7d;}.cls-13{fill:#8cfe94;}.cls-14{fill:#7bfe84;}.cls-15{fill:#70fe7a;}.cls-16{fill:#0d4e12;}.cls-17{fill:#3d8a42;}.cls-18{fill:#0a4c0e;}.cls-19{fill:#135318;}.cls-20{fill:#16551b;}.cls-21{fill:#1b4a1f;}.cls-22{fill:#030;}.cls-23{fill:#001e02;}.cls-24{fill:#1fea00;}.cls-25{fill:#128700;}.cls-26{fill:#138801;}.cls-27{fill:#fff;}</style></defs><g id="GreenCircle"><path class="cls-1" d="M1001,1931c-517.13-3.48-929.55-413.12-929.23-930.59.31-517,412.84-929.26,930.45-928.64,516.72.63,929.22,413.27,928,931.61C1929,1518.91,1517.82,1927.42,1001,1931Zm0-50c485.76-.12,878.08-392.89,880-876.22C1882.91,516.16,1487.71,121.49,1002,121c-486.52-.49-880.86,393.49-881,879.73C120.87,1487.15,515.14,1881,1001,1881Z" transform="translate(-71.78 -23.54)"/><path class="cls-2" d="M1831,1001.15c3,455.28-374.93,831.38-831.74,830.51-453.85-.88-829.3-375.25-828.89-831.53.41-455,375.71-830.54,832.16-829.77C1457.09,171.14,1834,545.93,1831,1001.15Z" transform="translate(-71.78 -23.54)"/></g><g id="wheelieBinBase"><g id="Colour"><g id="bin_base_colour" data-name="bin base colour"><path class="cls-3" d="M1662,143v42c-1.55,3.39-1.77,7.09-2.31,10.68-.7,4.62-2.88,7.66-7,10.09-11.73,6.89-23.61,13.66-34.65,21.58-9.19,6.59-17.12,14.78-19.39,26.82-1.31,7-1.91,14.21-6.1,20.35-2.32,3.41-3.06,7.3-3.31,11.32q-1.14,18.44-2.24,36.88-1.66,27.42-3.36,54.83c-1.18,18.6-2.45,37.19-3.63,55.79-1.16,18.27-2.23,36.55-3.39,54.82-1.18,18.61-2.43,37.2-3.61,55.8-1.15,18.11-2.21,36.22-3.36,54.33-1.19,18.76-2.45,37.53-3.64,56.29-1.15,18.11-2.23,36.22-3.37,54.33-1.19,18.76-2.44,37.53-3.64,56.29-1.15,18.11-2.24,36.22-3.4,54.32-1.17,18.44-2.42,36.87-3.59,55.31-1.15,18.27-2.21,36.55-3.37,54.82-1.18,18.77-2.44,37.53-3.63,56.3-1.15,18.1-2.24,36.21-3.39,54.32-1.18,18.6-2.43,37.2-3.61,55.8-1.16,18.27-2.25,36.55-3.41,54.82-1.17,18.43-2.42,36.86-3.59,55.3-1.15,18.27-2.2,36.55-3.37,54.82s-2.46,36.53-3.62,54.8c-1.17,18.44-2.17,36.89-3.35,55.32-1.5,23.25-3.57,46.48-4.53,69.75-.94,23-4,45.65-7.48,68.32q-4.85,31.71-9.66,63.43-4.73,31.24-9.41,62.49c-3.18,21-6.16,42-9.66,62.93-2.67,16-3.13,32.39-9.64,47.65-2,4.59-4.28,8.4-8.24,11.53-15,11.86-29.84,24-44.77,36-21.43,17.17-42.14,35.35-64.47,51.25-54.15,38.57-109.06,76.07-163.64,114a45.94,45.94,0,0,1-10.63,5.42c-11.3,4.12-22.32,9.16-34.53,10.13h-34c-.49-1.29-1.62-.82-2.54-.92-5.8-.68-12.3,2-17.09-3.69-.5-.59-1.9-.56-2.88-.56-14.63.07-28.77-3.85-42.76-6.93-86-18.94-171.86-38.79-257.76-58.32-43.67-9.93-87.39-19.7-131-29.81-19.17-4.44-39.15-6.6-55.79-18.76a10.31,10.31,0,0,1-4-4.73q-5.32-13.89-10.72-27.77c-9-23.17-19-46-19.92-71.5-.83-22.46-2.32-44.89-3.5-67.34q-1.63-30.93-3.25-61.85-1.85-34.66-3.75-69.32-1.66-30.93-3.3-61.85-1.85-34.17-3.7-68.33c-1.1-20.61-2.14-41.23-3.25-61.85-1.23-22.78-2.53-45.55-3.75-68.32-1.11-20.79-2.14-41.57-3.24-62.35q-1.85-34.66-3.76-69.33-1.66-30.92-3.29-61.85-1.85-34.15-3.71-68.32c-1.12-20.79-2.18-41.57-3.3-62.35Q521.88,934,520,900.12c-1.11-20.78-2.13-41.57-3.24-62.35-1.22-22.61-2.54-45.21-3.75-67.82-1.13-21-2.13-41.91-3.26-62.86-1.54-28.59-3.2-57.18-4.74-85.77-1.12-21-2.06-41.91-3.2-62.86-1.52-27.93-3.2-55.85-4.72-83.77-1.32-24.44-2.23-48.89-4.23-73.29-1-12.59-4.54-24.52-12.05-34.45-13.84-18.28-27.46-36.86-46.45-50.56-7.8-5.63-15.94-10.37-25-13.28-16.33-5.25-32.71-10.42-49.32-14.67-4.82-1.24-6.11-5.51-9.86-7.44-1.26-.65-.93-4.64-1.11-7.12-1.44-19.08-2.59-38.18-4.38-57.22-.46-4.87.4-10-1.71-14.66v-7c1.26-.25,1.35-1.44,1.57-2.29,2.67-9.87,9.39-14.28,19.21-16.2,24.18-4.72,48.23-10.18,72.34-15.28,3.49-.73,6.22-2,7.31-5.81,3.71-12.9,9.56-25,14.37-37.49,1.72-4.46,4.82-7.22,9.28-9.1s8.81-1.46,13.2-2.2C501.94,103,523.54,99,545.2,95.33c11.36-1.9,13.35-4.79,10,9.64a2.15,2.15,0,0,0-.07.5c-.11,6.14-3.55,8.89-9.29,10.35a92.76,92.76,0,0,0-27.41,11.69c-1.57,1-2.88,1.94-3.46,3.94q-3.83,13.34-8,26.57c-.75,2.37-.26,3.44,2,4.52,7.93,3.75,15.86,7.53,23.56,11.73,6.52,3.56,13.18,6.06,20.68,6.36,4.65.18,9.28.79,13.92,1.29,5.12.55,10.81,0,15.21,2.13,4.73,2.27,9.29,2.65,14.15,3,13.59,1.06,27.18,2.21,40.77,3.34,18.4,1.52,36.79,3.08,55.19,4.58,18.24,1.48,36.48,2.87,54.71,4.35q28.35,2.29,56.68,4.67,20.9,1.71,41.78,3.4c18.39,1.51,36.79,3.08,55.18,4.58,14.26,1.16,28.52,2.24,42.78,3.4,18.56,1.51,37.12,3.09,55.68,4.6,14.09,1.15,28.19,2.23,42.28,3.39,18.4,1.51,36.79,3.08,55.18,4.61,14.92,1.25,29.82,2.64,44.75,3.66,9.28.63,18.52,2,27.89,1.1,17.37-1.73,34.77-3.15,52.16-4.77,10.92-1,22.17-.8,32.69-3.46,82.84-21,165.55-42.55,248.3-63.93q69.13-17.85,138.3-35.65c1.37-.35,2.86-1.7,4.2-.32C1650.77,130.64,1660.14,133.35,1662,143ZM368.56,286.72c6.65,2,13.28,4,19.93,6,1,.29,2,.45,2.21-1.06s-.59-1.76-1.62-2C382.34,288.23,375.64,286.56,368.56,286.72Z" transform="translate(-71.78 -23.54)"/><path class="cls-4" d="M368.56,286.72c7.08-.16,13.78,1.51,20.52,3,1,.22,1.85.59,1.62,2s-1.24,1.35-2.21,1.06C381.84,290.76,375.21,288.73,368.56,286.72Z" transform="translate(-71.78 -23.54)"/></g><g id="bin_mid_shadows" data-name="bin mid shadows"><path class="cls-5" d="M1127.74,1980.14c-11-2.17-22.28-2.1-33.42-3.11-16.59-1.5-33.32-1.89-49.76-4.33-25.16-3.73-49.56-11-74-18q-152.37-43.7-304.82-87.1c-20.64-5.9-39-16.06-54.1-31.42-5.4-5.48-4.74-13.21-5.79-20.17-.31-2.08,1.45-1.76,3.17-1.37q56.91,12.92,113.85,25.66,110.48,24.83,220.93,49.63,56.94,12.78,113.91,25.44a23.42,23.42,0,0,0,5.72.55q34.58-.95,69.16-2c9.59-.27,16-7.34,18.26-16.92,6.54-27.5,5.38-55.62,5.9-83.56q3.76-201.45,7.21-402.9,3-168.19,6-336.41,3.49-196.45,7-392.9,1.89-105.48,3.79-211c.09-5.16.26-10.32-.54-15.46-1.11-7.18-4.25-10-11.73-9.9-38.33.4-76.66,1-115,1.2-30.34.15-60.6-2.31-90.89-3.6-46.62-2-93.21-4.63-139.83-6.39-26.53-1-52.75-4.66-79.06-7.59-32.94-3.67-65.84-7.68-98.77-11.51-29.94-3.48-59.88-7-89.85-10.28-8.2-.88-13.82-6.45-20-10.55a36.26,36.26,0,0,1-13-15.45c-9.69-22.32-26.65-39.69-40.48-59.19-4.21-5.94-10.73-7.58-17.38-8.5-4.6-.64-9.3-.57-14-.88-1.3-.09-3.31,0-3.74-.7-1.23-2.07-3.94-4-3.19-6.41,1-3.08,3.95-1.35,6.09-1.12,8.58.9,17.25,1.35,25.7,2.95,26.69,5.06,53.79,6.38,80.69,9.51,29.94,3.48,59.94,6.44,89.91,9.62l89.91,9.55q44.46,4.72,88.92,9.43,44.71,4.72,89.43,9.42,45,4.77,89.9,9.61,44.46,4.77,88.91,9.55c11.67,1.25,23.28-.56,34.9-1,28.8-1.19,57.57-3,86.36-4.46,8.28-.41,15.85-3.52,23.72-5.49,11.59-2.9,23.07-6.26,35-9.54-.56,1.06-.92,1.73-1.77,3.35,107.63-41,213.25-85.45,321-126.46,2.3,7.07.89,10.66,0,18.07-1.09,9.06-2.68,13.34-2.15,14.45.92,1.95,1,9.47,2.32,7.15-.52,9.39-.91,17.33-1.42,25.26q-4.41,68.83-8.89,137.66-5.28,81-10.61,162.08c-3.17,49-6.2,98.1-9.37,147.15q-4.74,73.31-9.6,146.62c-2.51,38.74-4.88,77.48-7.38,116.22q-4.25,65.59-8.59,131.17c-2.5,38.57-4.88,77.15-7.37,115.72q-3.75,58.1-7.61,116.2c-2.14,33.09-3.87,66.2-6.5,99.25-1.14,14.39-4,28.66-6.22,43q-8.74,56.23-17.59,112.45-7.33,46.86-14.63,93.71c-1.87,12-.71,24.36-4.35,36.13a54.12,54.12,0,0,1-9.3,18c-14.07,17.67-33.26,29-51.24,41.87-67.89,48.43-136,96.53-203.77,145.16-16.39,11.77-34.62,17.09-54.06,19.85-7.2,1-14.53,1.08-21.61,3Z" transform="translate(-71.78 -23.54)"/><path class="cls-6" d="M1200.85,309.82v-17c0-11.24,3.22-15.56,14.36-18.15,19.44-4.52,38.56-10.2,57.8-15.48q175.92-48.22,351.82-96.61c5.4-1.49,10.28-.69,15.1.86,3.58,1.15,4.82,4.94,5.22,8.44.69,6.07-1,11.9-2.56,17.7a4.66,4.66,0,0,1-1.68,2.39c-7.12,5.12-13.56,11.06-22.06,14.33-122,46.93-243.79,94.23-365.9,140.81-12.08,4.6-25.16,9-38.93,5.84a9.66,9.66,0,0,1-6.54-4.6,39,39,0,0,1-6.69-25.54C1201.15,318.52,1200.85,314.16,1200.85,309.82Z" transform="translate(-71.78 -23.54)"/><path class="cls-6" d="M1205.42,235.62a28,28,0,0,1-3.19-1c-1.07-.47-2.2-1.12-1.67-2.6a2,2,0,0,1,2.51-1.13c13.16,3.57,24.65-3.3,36.56-6.34q160.59-41,320.95-82.93c20.61-5.39,41.4-10.05,61.89-15.87,3.32-.94,6.44-2.22,6,3.57-.15,2.25,1.79,4.19,3.41,5.92,2.22,2.37,1.92,3.78-.66,6.41-12.85,13.07-30.15,15.08-46.47,19.32q-155.64,40.49-311.37,80.6c-2.11.55-4.39,2.09-6.5-.21-.45-.49-1.56-.7-1.65,0-.66,5.16-4.45,2.93-6.92,2.74-25.4-1.93-50.78-4.05-76.16-6.12-1.64-.14-3.92-.05-3.83-2.21.12-2.73,2.7-1.9,4.33-1.79,7.57.55,15.13,1.26,22.69,1.9Z" transform="translate(-71.78 -23.54)"/><path class="cls-7" d="M602.12,1822.31c-.11,9.62,1.16,18.32,6.13,26.18C597.8,1842,597,1833.24,602.12,1822.31Z" transform="translate(-71.78 -23.54)"/></g><g id="bin_dark_shadows" data-name="bin dark shadows"><path class="cls-8" d="M1163,1903c.36-.3,1-.55,1-.91,2.16-10.33,9.56-15.29,18.39-19.89q103.41-53.88,206.5-108.35c1.49-.77,2.8-2.48,5-1.51-.89,1.68-2.61,2.08-4,2.88q-98.62,56.47-197.24,113c-6.58,3.77-14.09,5.91-19.5,11.79a17.53,17.53,0,0,0-5,11.06c-.41,5.48-1.2,10.93-1.66,16.4-.2,2.4-1.13,3.31-3.47,2.58Z" transform="translate(-71.78 -23.54)"/><path class="cls-9" d="M1493.6,1347.27c-2.34-2-1.75-4.26-1.64-6.31q2.67-49.41,5.43-98.81t5.61-98.81q3.32-58.38,6.61-116.77,2.7-47.91,5.38-95.82,3.32-58.87,6.64-117.77,2.71-48.4,5.38-96.82,3.27-58.12,6.6-116.27,2.73-48.15,5.39-96.32,3.29-58.38,6.6-116.77c1.15-20.46,2.23-40.92,3.42-61.38.37-6.28-2.07-11.83-4.75-17.11-3.64-7.18-10.68-6.39-17.14-5.69-9.07,1-9.82.66-8-8.34,1.34-6.65,2.41-13.5,5.58-19.62,5.64-10.86,16-13.5,26.94-15.37,14.21-2.44,20.83,9.63,20.24,20.36-1.64,29.76-4.12,59.49-6.3,89.22s-4.39,59.48-6.59,89.21q-3.8,51.35-7.6,102.67-3.23,43.86-6.41,87.72-3.77,51.33-7.59,102.66-3.21,43.36-6.38,86.73-3.81,51.82-7.64,103.66-3.23,44.1-6.41,88.22-3.75,51.09-7.6,102.16-3.22,43.86-6.39,87.73-3.76,51.33-7.61,102.66C1494.76,1330.49,1494.21,1338.7,1493.6,1347.27Z" transform="translate(-71.78 -23.54)"/><path class="cls-9" d="M1507.57,274c-.43,9.91-1,19-1.14,28.19,0,2.9-.83,4-3.68,4.62q-43.61,8.67-87.15,17.63c-3,.62-3.58-.09-4-2.88-1.38-9.06-1.42-9.2,7-12.51l84.82-33.43Z" transform="translate(-71.78 -23.54)"/><path class="cls-8" d="M1270.77,367.53l125.77-49.69a5,5,0,0,1,.4.86c.9,12.74.89,12.71-11.38,16.33q-53.77,15.83-107.55,31.65C1275.9,367.3,1273.78,368.59,1270.77,367.53Z" transform="translate(-71.78 -23.54)"/></g><g id="bin_highlights" data-name="bin highlights"><path class="cls-10" d="M533.86,714.09q2.65,47.64,5.31,95.26,3,53.11,6,106.22l6,106.22q3,53.36,6,106.72l6,106.22q3,53.36,6,106.72c1.22,21.44,2.09,42.92,3.92,64.31,2.1,24.68,5.15,49.28,7.67,73.92,2.21,21.68,4.21,43.38,6.39,65.06,2.13,21.18,4.39,42.35,6.53,63.53,2.19,21.68,4.1,43.39,6.49,65,2.71,24.46,3.85,49.11,8.77,73.3a14.35,14.35,0,0,0,1.43,4.75c9.1,14.48,16.68,30.2,30.67,40.93,9.56,7.33,20.41,12.33,31.7,16.59,41.67,15.74,85.11,25.1,128.08,36.13,28,7.19,56,14.22,83.89,22-5.29-1.12-10.6-2.17-15.87-3.36q-129.3-29.34-258.55-58.81c-8.78-2-14.94-8.15-18.08-16.82-3.72-10.29-4.52-21-5.06-31.86q-2.64-53.38-5.36-106.77-2.43-47.39-5-94.78-2.49-47.13-5-94.27-2.51-47.39-5-94.78-3-56.61-6-113.23-2.51-47.39-5-94.78l-6-114.23q-2.47-46.89-5-93.77l-5-95.28q-2.51-47.39-5-94.77c-.67-12.8-1.28-25.61-1.92-38.41C533.57,718.84,532.16,716.26,533.86,714.09Z" transform="translate(-71.78 -23.54)"/><path class="cls-10" d="M356.92,273v-64.9c0-6.68,3.95-10.38,10.66-9.75,33.46,3.13,66.9,6.36,100.36,9.47,30.31,2.81,60.64,5.45,90.95,8.27s60.6,5.83,90.91,8.66c23.35,2.17,46.72,4.14,70.08,6.31,23.19,2.15,46.36,4.49,69.55,6.65s46.39,4.16,69.58,6.32c23.35,2.17,46.69,4.47,70,6.65,19.54,1.82,39.1,3.51,58.64,5.33,19.71,1.83,39.4,3.89,59.12,5.58,24.2,2.08,48.34,5.05,72.67,5.41,22.09.31,44.15,1.65,66.33,1.89-11.34,1.36-22.65,3.1-34,4-28.94,2.33-58,.5-86.86-.43-26.88-.86-53.66-4.8-80.49-7.29-26.67-2.48-53.35-4.77-80-7.26s-53.31-5.14-80-7.7c-22-2.11-44.05-4.14-66.07-6.31-25.32-2.5-50.63-5.17-76-7.67-22.19-2.19-44.39-4.17-66.57-6.36-25.16-2.48-50.3-5.15-75.46-7.63-22-2.18-44-4.15-66.06-6.32q-37.74-3.72-75.46-7.65a287.49,287.49,0,0,0-32.41-1.36c-2.64,0-3.14,1.12-3.63,3.46-2,9.67-2.17,19.49-2.83,29.27-.75,11.1-1.43,22.21-2.13,33.31Z" transform="translate(-71.78 -23.54)"/><path class="cls-11" d="M831.4,293.66c-8.46,1-15.36-.43-22.24-1-29.83-2.38-59.64-5.13-89.46-7.79-36-3.21-71.89-6.51-107.84-9.68-24.69-2.17-49.4-4.13-74.09-6.3-28.5-2.5-57-5.15-85.48-7.69-19.72-1.76-39.43-3.54-59.17-5.09-3.82-.3-8.43-1.52-8.19-4.7.22-2.91,5.48-3.43,8.87-3.22,7.12.45,14.23,1.21,21.32,2.07,23.26,2.83,46.55,5.53,69.77,8.71,39.77,5.44,79.9,6.89,119.77,11.14,31.1,3.3,62.16,7.12,93.33,9.49,40.67,3.08,81,8.85,121.61,12.58C823.05,292.52,826.49,293,831.4,293.66Z" transform="translate(-71.78 -23.54)"/><path class="cls-12" d="M466.39,320c16.54,18,37.35,32.28,46.82,56.41q-24.08-27.6-48.14-55.22Z" transform="translate(-71.78 -23.54)"/><path class="cls-13" d="M533.86,714.09c-1.7,2.17-.29,4.75-1,7.06-1.89-7.16-1.08-14.54-1.57-21.8-1.54-22.57-2.31-45.2-3.44-67.8-1-19.11-2-38.21-3-57.31a8.55,8.55,0,0,1,.74-4.46c.41,4.25,1,8.5,1.19,12.76,1.14,21.1,2.11,42.21,3.3,63.3,1.14,20.43,2.48,40.85,3.7,61.27C534,709.43,533.85,711.77,533.86,714.09Z" transform="translate(-71.78 -23.54)"/><path class="cls-14" d="M520.86,390.65c2.32,22.07-1.39,44-2.1,66.89C516.6,444.47,517.83,395.16,520.86,390.65Z" transform="translate(-71.78 -23.54)"/><path class="cls-15" d="M471,144.13c-3-7-.41-11.82,6.43-15.3s14.15-4.41,22-3.37C489.17,130.41,476.42,131.43,471,144.13Z" transform="translate(-71.78 -23.54)"/></g></g><g id="binOutline"><g id="binOutlineGroup"><path class="cls-16" d="M540,109c.85,2,3.79,3.24,2.31,6-1.37,2.55-4,1.76-6.24,2.07-16.67,2.32-33.49,2.8-50.26,3.89-11.34.73-21.45,11-22,22.37-.25,5.3-.67,10.61-1.19,15.89-.61,6.16-7.26,13.26-13.43,14.27-18.76,3.07-37.46,6.84-56.35,8.67A113.76,113.76,0,0,0,370,186.32a27.88,27.88,0,0,0,12.71,3c17.46.45,34.76,2.82,52.09,4.85a362.74,362.74,0,0,0,36.54,2.94c4.66.08,9.23.26,13.8,1.66,3.75,1.15,7.76-.19,11.77.16,24,2.11,48,3.69,72.06,5.5,25.67,1.94,51.35,3.78,77,6,14,1.2,28,3.38,42,4.45,10.39.79,20.85.53,31.26,1.42,23.5,2,47,3.87,70.52,5.77,12.92,1,25.85,1.87,38.76,3.06q48.2,4.41,96.37,9.07c62,5.91,124,12.24,186,17.53,18.86,1.61,38,.1,56.93.53,23,.52,46-.16,68.7-4,9.69-1.62,19-5.55,28.62-6.67,18.67-2.16,36.58-7.38,54.75-11.55,38.83-8.92,77.5-18.55,116.41-27.1,56.07-12.32,111.08-28.55,166.28-44.11,8.52-2.4,16.61-6.31,24.93-9.45,3.71-1.4,7.44-2.77,11.26-3.84,1.46-.41,3.45-.69,4.42,1.23s-.33,3-1.43,4.37c-4.67,5.67-10.87,8-17.89,9.62-13.38,3-26.6,6.76-39.9,10.17-12.47,3.21-25,6.36-37.44,9.56-23,5.87-45.91,11.84-68.9,17.61-32.19,8.07-64.45,15.91-96.63,24-19.07,4.8-38,10-57.08,14.88-15.69,4-31.51,7.53-47.11,11.83-13,3.59-26.16,6.92-39.36,9.85-19.1,4.22-38.43,6.19-58,4.09-.5-.05-1,0-1.5,0-17-.37-33.93-.71-50.89-1.16-6.3-.16-12.73-1.55-18.86-.69-7.88,1.1-15.53.4-23.25-.23-23-1.91-46.1-2.32-69.17-3.18a76,76,0,0,1-18.09-2.94c-12.49-3.6-25.3-3.77-38-3.67-10.29.07-20-2.63-30.05-3.63-11-1.1-22-2.61-33.08-3.72-17.83-1.8-35.86-.33-53.56-3-14.08-2.16-28.21-3.73-42.33-5.46-11.5-1.41-23.13-1.84-34.59-3.46-16.73-2.36-33.56-3.55-50.37-5-16.56-1.43-33.1-3.05-49.65-4.53q-39.26-3.5-78.51-6.91c-16.73-1.45-33.48-2.77-50.21-4.27-21-1.87-42-3.95-63-5.78-20.71-1.8-41.44-3.31-62.15-5.11q-26.58-2.31-53.13-5.07c-4.63-.49-5,2.21-5.08,5.35-.19,6.82-.21,13.66-.28,20.49,0,2.83-.37,5.9-3.89,5.75-3.16-.13-3.25-3.27-3.42-5.76-.49-7.5.43-15,1-22.41.36-4.71,3.36-8.25,6.41-12,8.56-10.42,21-9.52,32.19-12,19.27-4.28,38.68-7.92,58-11.92,5.09-1.06,8.17-5.27,8.45-10.43.45-8.07.5-16.09,4.27-23.75s9.58-13,16.6-17.33c.68-.42,2.08-.37,1.66-1.85h1c.74,1.68,2.26,1.07,3.46,1.07q28.07.06,56.13,0c1.17,0,2.73.73,3.41-1.06Z" transform="translate(-71.78 -23.54)"/><path class="cls-17" d="M539,109c-.68,1.79-2.24,1.06-3.41,1.06q-28.07.07-56.13,0c-1.2,0-2.72.61-3.46-1.07Z" transform="translate(-71.78 -23.54)"/><path class="cls-17" d="M1650,1587l-1-.07V1552.1l1-.1Z" transform="translate(-71.78 -23.54)"/><path class="cls-18" d="M1649,1552.1v34.83c-2.51,48.13-11,94.79-34.18,137.78a109.4,109.4,0,0,1-18.85,25c-11.93,12.06-27.31,12.51-42.61,13.52-11,.72-21.88-1.14-32.76-2.14-12.09-1.11-19.95-9.08-26.48-18.54-7.95-11.53-12.46-24.54-16.11-37.91-.48-1.75-1-3.48-1.63-5.2-.07-.22-.51-.32-1-.6-2.59,13.68-5.25,27.25-7.7,40.86a63.42,63.42,0,0,1-7.28,19.9c-9.62,17.13-24.29,29-39.91,40.06-12.27,8.67-24.23,17.78-36.68,26.2-12.24,8.28-25,15.84-37.38,23.86-11.5,7.43-22.84,15.14-34.33,22.58-18.63,12.07-37.36,24-56,36-15.94,10.31-31.63,21-47.78,31-12.31,7.61-24,16.14-36.5,23.42-8.27,4.82-18.13,4.92-27.25,7.26-19.67,5.07-39.68,2.67-59.56,3.25-15.72.37-31.07-2.84-46.49-5.06-10.79-1.55-21.35-4.64-32-7-22.6-5-45.12-10.47-67.86-14.77-17.24-3.26-34.06-8.06-51.14-11.91-26.74-6-53.29-12.84-79.92-19.33-20.73-5-41.44-10.23-62.15-15.38-20.06-5-40.17-9.77-60.26-14.62q-28.44-6.86-56.82-14.06c-7.54-1.9-15.2-3.42-22.57-5.85-7.73-2.55-12.17-9.45-17.48-15.09-2.18-2.31-.29-5.11-.49-7.67a72,72,0,0,1,.87-20.39,10.67,10.67,0,0,0-5-11.21,12.8,12.8,0,0,1-5.81-8.88c-1.47-8.12-3.12-16.2-3.51-24.55-.87-18.9-2.51-37.76-3.67-56.64-.78-12.65-.68-25.39-2-38-1.33-12.13-1.21-24.32-2.66-36.43-1-8.84-.89-17.82-1.43-26.73-.88-14.3-1.94-28.58-2.84-42.88-.48-7.56-.72-15.13-1.21-22.69-.88-13.48-2-26.94-2.79-40.42-.83-13.15-1.4-26.31-2.21-39.45-.88-14.25-2-28.49-2.84-42.74-.75-12.66-.79-25.38-2-38-1.23-12.4-1.3-24.86-2.53-37.27-.86-8.7-.93-17.57-1.69-26.32-1-11.36-1-22.75-1.45-34.1-.45-12.47-.91-24.95-1.58-37.4-1-18.12-1.06-36.27-2.71-54.36-1-10.43-.7-21-1.2-31.44-1.24-25.86-2.67-51.71-3.9-77.56-.84-17.7-1.13-35.42-2.3-53.09-.92-13.84-1.34-27.71-2.3-41.56-.81-11.65-.82-23.4-1.49-35.1-.91-15.81-1.77-31.62-2.49-47.43-.61-13.32-1.11-26.66-1.58-40-.67-18.9-2.38-37.77-2.68-56.67-.17-11.24-.4-22.52-1.22-33.67-.88-12-.11-24-1.49-36-.75-6.5-.37-13.13-.61-19.7-1-27.67-1.72-55.36-3.27-83-1.1-19.63-1-39.31-2.18-58.91-1.72-28.11-1.85-56.28-4.08-84.38-.87-11.07-1-22.33-1.25-33.5-.5-20.32-1.1-40.66-2.54-60.92-.49-6.82.61-13.6-1.18-20.57-2.32-9-8.35-15.08-14-21.45-19.45-22.06-39.36-43.71-58.85-65.73a14.32,14.32,0,0,0-11.16-5.28,173.08,173.08,0,0,1-42.27-5.57c-8.3-2.17-16.76-3.75-24.85-6.7-5.13-1.87-7.6-5.41-7.49-10.94.07-3.65-.29-7.31-.45-11,.39-3.95-.09-8,1.49-11.82.73-1.79,1.36-3.84,3.48-3.46,2.5.45,1.61,2.73,1.54,4.53-.28,6.64-.75,13.3-.56,19.93.19,6.47,2.86,8.72,11.7,10.08,29.26,4.53,58.62,8.39,87.75,13.82,11.05,2.06,22.44,2.19,33.66,3.35,12.68,1.31,25.35,2.79,38,4.18,11.69,1.28,23.39,2.49,35.08,3.79,17.26,1.92,34.52,3.94,51.79,5.8,10.87,1.18,21.78,2.08,32.66,3.21,14.33,1.5,28.64,3.13,43,4.65,10.71,1.13,21.43,2.17,32.15,3.26L766,330.24c10.55,1.07,21.11,2.05,31.66,3.16,14.66,1.53,29.3,3.19,44,4.7,14.35,1.47,28.71,2.77,43.06,4.25,18,1.85,35.9,3.84,53.86,5.72,10.88,1.14,21.77,2.15,32.66,3.26,18.94,1.94,37.88,3.94,56.82,5.87,10.71,1.1,21.43,2.1,32.14,3.17,1.69.17,4.24-.48,4.14,2.25-.06,2-1.89,3-4,3-5.83,0-11.69.3-17.49-.15-13.86-1.1-27.69-2.51-41.52-3.9-15.46-1.56-30.89-3.32-46.35-4.83-12.2-1.18-24.42-2-36.61-3.18-12-1.14-24-2.55-36-3.75-11.37-1.13-22.77-2-34.12-3.24-12-1.33-24.07-2-36-3.7-8.67-1.24-17.49-1.45-26.23-2.28-12.19-1.16-24.35-2.51-36.53-3.7-11.72-1.14-23.44-2.14-35.15-3.28-12.68-1.23-25.35-2.58-38-3.8-11.53-1.11-23.08-2.1-34.62-3.19-13.5-1.27-27-2.75-40.51-3.88-15-1.25-29.92-3.71-44.89-4.74q-36.08-2.5-71.87-7.15c-9.87-1.28-19.78-2.14-29.65-3.36-2.94-.36-5.6-2.74-9.29-1.31,15.48,10.12,24.4,25.73,35.91,39,10.86,12.47,21.06,25.51,31.86,38,2,2.35,2.33,4.57,2.34,7.19.06,17.63-.28,35.28.22,52.9.62,21.84,1.91,43.66,2.92,65.49,1,21.35,1.77,42.72,3.06,64,1,17.32,1.41,34.66,2.67,52,1.35,18.65,1.43,37.39,2.29,56.09.71,15.41,1.85,30.81,2.6,46.23.51,10.54.54,21.11,1,31.66,1,21.5,2.21,43,3.2,64.5,1.12,24.06,1.85,48.13,3.21,72.18q1.59,28.3,2.71,56.62c.68,17.13,1.47,34.25,2.26,51.38.95,20.49,1.64,41,3,61.47,1,14.48,1.28,29,2.39,43.46.87,11.31,1,22.76,1.41,34.15.79,20,2,40,2.91,60,.84,18.8,1.24,37.62,2.32,56.4,1.24,21.7,2.09,43.4,3,65.11s2,43.45,3,65.17q1.82,37.15,3.77,74.29c.86,15.91,2,31.81,2.88,47.71,1.07,18.39,1.68,36.81,3.18,55.16,1.49,18.14,1.58,36.35,3.56,54.46,1.06,9.69.69,19.53,1.28,29.29.86,14.16,2.1,28.29,3,42.45.57,9,.49,18.1,1.28,27.11,1.7,19.22,1.58,38.55,3.76,57.74.61,5.4.14,10.88,1.1,16.34,1.28,7.32,4.57,12.91,11,16.78,3.09,1.86,3.48,5.07,3.54,8.54.1,6-2.46,11.59-2.76,17.63-.31,6.39,3.22,9.93,7.19,13.8,8.61,8.37,19.94,10.28,30.8,12.57,28.17,5.94,56.19,12.56,84.29,18.81q45.51,10.14,90.94,20.67,46.43,10.8,93,21c30.67,6.78,61.33,13.65,91.86,21,19.31,4.67,38.77,8.68,58.11,13.19a144,144,0,0,0,48.43,3.22c20-2.2,40.18-3,59.81-8.35,8.58-2.32,15.44-7.4,22.69-11.92,11.21-7,22.27-14.2,33.32-21.44,17.38-11.39,35.11-22.24,52.32-33.9,12.79-8.67,26.12-16.52,39.16-24.83,17.68-11.28,35.47-22.4,52.92-34,13.57-9.06,28-16.79,40.85-26.94,6.39-5.06,12.12-11,18.11-16.56,7.4-6.88,15.4-13.07,22.39-20.45,8.29-8.76,12.09-19.45,14.88-30.71,5.19-21,7.31-42.46,11.07-63.67,3-16.75,1.7-33.51,2.33-50.26,1.41-37.16,7.52-73.41,19.51-108.67,3.26-9.59,3.54-19.6,3.71-29.77.26-15.29,2.43-30.54,3.21-45.83.63-12.17,1.61-24.34,2.58-36.45s1.3-24.2,2.77-36.25c1.21-9.94,1.35-20,2.09-30,.81-10.86,1.83-21.71,2.65-32.57.79-10.49,1.42-21,2.17-31.49q2-27.66,4-55.31c1.57-20.87,3.26-41.72,4.81-62.59.56-7.58.78-15.19,1.33-22.77,1-13.09,2.16-26.16,3-39.26,1.33-19.81,3.07-39.59,4.19-59.42.68-12.11,2.13-24.24,3-36.37q1.47-21.55,3.13-43.12c1.09-14.45,1.78-28.94,3.3-43.37,1.15-11,1.68-22,2.46-33,.67-9.53,1.37-19.06,1.94-28.6.89-14.76,2.42-29.47,3.14-44.25.71-14.34,2.36-28.62,3.47-42.93.94-12.14,1.66-24.29,2.57-36.42,1.11-14.92,2.67-29.82,3.36-44.76.63-13.66,2.3-27.23,2.77-40.92.33-9.43,1.51-18.93,2.33-28.4,1-11.92,1.09-23.94,2.43-35.82s1.86-24.05,2.79-36.07c1.14-14.61,1.92-29.25,3-43.87.86-11.64,2-23.27,2.89-34.91s1.35-23,2.18-34.51,2-23.26,2.86-34.9q2.5-32.24,4.9-64.49c.81-11,1.57-22,2.09-33.05.15-3.24-.87-6.53-.92-9.8a277.62,277.62,0,0,1,1.87-35.77c.39-3.34,0-5.18-3.94-3.41-11.33,5.06-23.41,8.25-34.44,14.09-8.4,4.45-12.68,12.94-19.51,18.89-5.57,4.86-5,11.63-5.62,17.86-1.09,11.22-1.18,22.55-2.4,33.76-.66,6.07,0,12.27-1.73,18.24-.37,1.3-.54,2.9-2.27,2.76-2-.16-2-1.9-2-3.44-.53-20.35-1.16-40.71,0-61.07.31-5.53,2.76-10.47,5.64-15.44-2.76-1-5,.19-7.2,1.05l-109.44,42.06q-47.07,18.1-94.15,36.21c-20.24,7.79-40.23,16.36-60.79,23.17-18.62,6.17-37.85,9.9-57.84,9-20.92-1-41.9-.85-62.85-1.39-5.66-.15-11-2.38-16.2-4.33-1.27-.48-3.26-.88-2.95-2.85.35-2.3,2.42-1.89,4-1.89,8.66-.06,17.33-.06,26-.08,18.5-.05,37-.43,55.49-.07a156.63,156.63,0,0,0,63.9-12.08c27.24-11.25,55-21.18,82.55-31.75q64.43-24.74,128.83-49.57,37.3-14.34,74.65-28.57c21.93-8.39,44-16.53,65.7-25.38,8.43-3.43,17.3-5.71,25.43-9.92,2.29-1.19,4.91-.65,7.39-.69,1.48,0,3.23-.17,3.74,1.69s-.85,2.73-2.1,3.59c-4.81,3.32-10.38,4.92-15.71,7.11-6.56,2.69-13.51,4.55-19.49,8.61a16.33,16.33,0,0,0-7.53,12.76c-1.43,16.92-2.57,33.87-4.47,50.73-2.31,20.49-4.41,41-5.59,61.57-.68,11.75-.74,23.57-2.06,35.24-1.7,15.16-1.47,30.45-3.68,45.55-.68,4.58-.84,9.23-1.16,13.86-1.34,19.5-2.83,39-3.89,58.52-.58,10.59-1.79,21.13-2.27,31.74-.78,17.36-2.84,34.67-3.67,52-.56,11.62-2.13,23.13-2.44,34.78s-2.33,23.45-2.6,35.2c-.28,12.32-2.11,24.48-2.6,36.77-.59,14.88-2.28,29.72-3.44,44.59-.77,9.91-1.46,19.83-2.15,29.75-.8,11.58-1.65,23.15-2.79,34.71-.84,8.42-.36,16.93-1.47,25.37-2.52,19.24-2.18,38.7-4.42,58-1.41,12.16-1.63,24.53-2.6,36.79-1.39,17.52-3.08,35-3.79,52.58-.46,11.14-1.72,22.19-2.4,33.29-1.24,20.38-3.13,40.73-4.67,61.09-.83,11.08-1.22,22.21-2.28,33.27-1.93,20.31-2.69,40.7-4.6,61-1,10.72-1.48,21.52-2.34,32.27-1.31,16.19-3.05,32.37-3.72,48.59-.64,15.46-2.42,30.81-3.37,46.24-1.14,18.36-3,36.68-4.4,55-.7,9.11-.75,18.29-1.68,27.37-1.67,16.32-1.76,32.77-4.3,49a24.57,24.57,0,0,0-.14,5.49c.54,7.53-.93,14.86-1.79,22.28-.73,6.33-1.68,12.74-1,19.46,2.39-.46,2.78-2.53,3.61-3.9a86.19,86.19,0,0,1,27.33-27.95c9.46-6.14,20.49-7.3,31.63-6,9.85,1.19,19.69,2.55,29.5,4,16,2.38,26.81,11.61,33.32,26a205.65,205.65,0,0,1,15.82,54.88A235.06,235.06,0,0,1,1649,1552.1Zm-105.28,204.74c6.59-.18,13.19.19,19.86-.64,11.61-1.44,21.27-5.17,29.42-14.33,16.62-18.7,28.25-40.09,37-63.24,4.8-12.78,6.28-26.34,8.71-39.69,3.59-19.75,6.13-39.55,6.48-59.65.12-7.51-1.27-14.88-1.13-22.36.11-5.76,1.86-11.33,1.22-17.21-1.28-11.82-5.52-23.3-4.27-35.44.11-1.06-.58-2.21-.93-3.31-2.88-9.1-8.13-17.12-11.76-25.86a22.22,22.22,0,0,0-16-13.68c-9-2.12-17.34.43-24.3,7-12.14,11.51-19.67,25.93-25.61,41.15-12.28,31.43-18.23,64.37-20.08,97.87a379.77,379.77,0,0,0,.57,52.35c1.63,19.78,5.09,39,12.35,57.52.43,1.1,1.15,2.2.35,3.29-3.12,4.32-6.07,9-11.77,10.18-15.78,3.19-29.9-.69-42.21-10.89-5.4-4.48-8.91-10.67-13.3-16.07-.89-1.08-1.88-3.06-3.42-2.28-1.37.69-1.75,2.65-1.33,4.41.27,1.12.41,2.29.77,3.39a161.52,161.52,0,0,0,14.39,31.14c3,5.15,7.58,10.16,14.22,11.93C1523,1755.17,1532.91,1758.77,1543.69,1756.84Zm-32.76-277.09c2.73-1.42,3.51-3.3,4.7-4.87,6.85-9,14.83-16.6,26.16-19.58a188.67,188.67,0,0,1,19.86-4.5c6.28-.93,12.35-2.69,19-2.19,5.52.41,11.12.31,16.65,1.26a9.14,9.14,0,0,0,6.28-1.06c1-.58,2.35-1,2.24-2.37-.12-1.61-1.6-1.31-2.69-1.54-5.5-1.17-11-2.49-16.51-3.53-9.6-1.82-19.15-4.17-29.05-3.31-8.29.72-16.13,2.11-23.24,7.37-6,4.44-10.52,10.1-15.21,15.56C1514.8,1466.05,1511.13,1472,1510.93,1479.75Z" transform="translate(-71.78 -23.54)"/><path class="cls-19" d="M1146.43,313.6c-22.58-2.44-45.36-2.41-68-4.77-8.73-.92-17.57-.06-26.37-1.11-14-1.67-28-2.7-42-4-8.43-.76-16.86-1.39-25.28-2.13-17.5-1.54-35-3.16-52.5-4.69-13.23-1.15-26.47-2.15-39.7-3.31-17-1.49-34.06-3.1-51.09-4.62-12.58-1.13-25.16-2.16-37.73-3.29q-22.59-2-45.17-4.16c-21.46-2-42.92-3.9-64.37-6-18.47-1.81-36.92-3.91-55.39-5.73-12.37-1.22-24.78-2-37.14-3.29-11-1.17-22-3-33-4.21-16-1.74-32.08-3.1-48.1-4.74-14.35-1.47-28.67-3.12-43-4.64-10.88-1.15-21.77-2.17-32.64-3.35-14.14-1.53-28.27-3.19-42.41-4.73-10.35-1.13-20.71-2.25-31.09-3.21-2.83-.26-5.32-1-4.81-4.18.43-2.73,1.69-5.35,5.64-4.89,12.61,1.47,25.24,2.73,37.86,4.07,8.55.9,17.1,1.82,25.65,2.71,15.11,1.56,30.24,2.94,45.34,4.77,15.27,1.85,30.66,2.75,46,4.29,13.81,1.39,27.59,3.18,41.4,4.64,11.68,1.22,23.4,2,35.07,3.36,11.31,1.3,22.68,1.95,34,3.55s22.39,2.28,33.59,3.39c12.51,1.23,25,2.77,37.54,3.66,9.42.66,18.82,1.4,28.22,2.31q21,2,42,3.82c9.91.84,19.84,1.41,29.75,2.23,14.63,1.21,29.25,2.56,43.87,3.81,12.71,1.08,25.42,2.07,38.11,3.19,13.85,1.23,27.68,2.62,41.53,3.82,9.4.82,18.82,1.42,28.22,2.17,20.78,1.66,41.57,3.16,62.32,5.09,22.56,2.1,45.1,4.48,67.62,7,15.76,1.74,31.44,4.12,47.21,5.72,5.6.57,11.15,1.3,16.7,2.16,1.83.28,3.39.57,3.28,2.81s-1.81,2.47-3.59,2.46C1151.43,313.59,1148.93,313.6,1146.43,313.6Z" transform="translate(-71.78 -23.54)"/><path class="cls-20" d="M1225.26,1147.94c.67-32.61,1.71-65.21,2.33-97.83.48-25.08,1.4-50.18,2-75.27q.93-37.14,2-74.26,1-35.13,2-70.26c.75-24.25,1.28-48.51,1.93-72.76q1-36.91,2-73.81c.75-25.52,1.13-51.06,2.19-76.57.44-10.64.36-21.28.66-31.92.74-26.55,1.35-53.11,2.4-79.65.3-7.81.36-15.61.57-23.42q1-35.88,2-71.75c.07-2.61.67-4.86,3.26-6.2,3.92-2,6.18-.77,6,3.6-1.35,26.05-1.36,52.14-2.21,78.2s-1.34,52.09-2.07,78.13c-.63,22.61-1.29,45.21-1.81,67.82q-.87,38.34-2.1,76.68c-.45,14.09-.21,28.19-.91,42.26-1.08,21.57-1.56,43.15-1.93,64.74-.46,26.92-1.45,53.83-2.24,80.75-.17,6-.6,11.94-.6,17.91,0,18.64-.88,37.26-1.29,55.89-.53,24.26-1.27,48.52-1.94,72.78-.68,24.92-1.15,49.85-2.14,74.75-.58,14.59.35,29.23-1.47,43.78-.67,5.32-2.67,10.22-3.91,15.36-.28,1.18-.9,2.77-2.61,2.54-2-.27-2-2-2.06-3.5C1225.23,1159.94,1225.26,1153.94,1225.26,1147.94Z" transform="translate(-71.78 -23.54)"/><path class="cls-16" d="M1226.51,316.57c-1.33,0-2.59-.23-3-1.93-.48-2.18,1-3.06,2.59-3.62,6.42-2.25,13-4.18,19.32-6.62,39-15,78.68-27.73,118-41.52,27.59-9.66,55.45-18.54,83.15-27.92,44-14.93,88.35-29.11,132.71-43.1,15.53-4.9,30.93-10.23,46.47-15.1,2.36-.73,6.07-3.81,7.53.84s-2.94,4.75-5.78,5.69c-34.39,11.33-68.66,23-103.23,33.81-28.71,8.94-57.19,18.54-85.67,28.11-46,15.46-91.66,31.89-137.55,47.65q-36,12.39-72.65,23.12Z" transform="translate(-71.78 -23.54)"/><path class="cls-21" d="M1016.4,672.87c-.73,1.49-1,2.08-1.31,2.66-3.82,7.07-3.8,6.93-11.78,6.16-22.69-2.21-45.39-4.29-68.09-6.48a6.23,6.23,0,0,0-4.6,1.3,26.25,26.25,0,0,1-18.22,5.29c-19.53-1.75-39-3.64-58.56-5.53-2.86-.28-5.26-.25-7.8,1.86-5.71,4.72-12.84,5.33-19.83,4.78-19.22-1.52-38.41-3.44-57.61-5.23a28,28,0,0,1-3.38-.73c3.22-8.5,3.71-8.83,11.91-8.07,21.54,2,43.09,3.84,64.6,6.06,4.52.47,7.62-1.88,11-3.76a23.41,23.41,0,0,1,13.86-3c18.74,1.64,37.48,3.26,56.18,5.26a22,22,0,0,0,14.23-3.2c3.69-2.23,7.58-3.68,11.75-3.34C971.08,668.75,993.43,670.82,1016.4,672.87Z" transform="translate(-71.78 -23.54)"/><path class="cls-21" d="M963.3,649.18c-4.25,8.56-4.25,8.52-13.41,7.89-3.7-.25-6.92-.38-10.5,2.39-5.72,4.42-13.11,4.24-20.14,3.62-16.92-1.48-33.82-3.11-50.73-4.67-4.49-.42-9-1.4-13,2-5.06,4.21-11.36,4.81-17.48,4.34-20.25-1.59-40.46-3.59-60.68-5.45a14.65,14.65,0,0,1-2.1-.53c1.44-2.59,2.94-4.94,4.06-7.46,1-2.25,2.69-1.5,4.23-1.36,20.56,1.85,41.12,3.66,61.67,5.66,6.67.65,13.17,1.35,19-3,5.14-3.84,11.14-2.83,16.9-2.33,17.73,1.53,35.47,3,53.15,5,5.87.66,10.35-1.8,15-4.24S958.38,648.35,963.3,649.18Z" transform="translate(-71.78 -23.54)"/><path class="cls-20" d="M1397.2,385.92c-.69-16.65,1.31-33.23,1.4-49.87,0-5.57.72-11.24.75-16.88,0-3.92,2.66-5.5,5.7-5.58,3.53-.1,2.66,3.22,2.65,5.34-.11,22.93-1.34,45.82-2.81,68.7-.57,8.95-.94,17.91-1.24,26.87-.28,8.25-1,9.53-8.85,10.84-4,.68-8.11,1.78-12.32,1.31-1.44-.17-2.7-.45-3-2.07a2.64,2.64,0,0,1,1.77-3.15c3.64-1.54,6.71-4.4,10.7-5.07s5.28-3.23,5.25-7C1397.15,401.57,1397.2,393.75,1397.2,385.92Z" transform="translate(-71.78 -23.54)"/><path class="cls-16" d="M551.1,324.35c4.68-.85,6.86,2.17,8.56,6.51,8.11,20.66,16.27,41.31,24.74,61.82,2,4.71,4.81,9.06,5.11,14.29.1,1.81,1.08,4.46-1.47,5.24s-3.26-1.79-4.09-3.48c-5.81-11.87-11.44-23.82-17.32-35.65-6.14-12.38-11.51-25.15-18.41-37.15-.82-1.41-1.21-3.05-1.91-4.53C543.31,325,543.78,324.24,551.1,324.35Z" transform="translate(-71.78 -23.54)"/><path class="cls-16" d="M768.2,345.34c3.85-.78,5.87,1.35,7.24,5.53,5.72,17.56,11.84,35,17.65,52.53,2.78,8.4,5.16,16.93,7.79,25.38.51,1.63,1.44,3.45-.57,4.35-2.62,1.17-2.94-1.51-3.58-3q-11.24-25.41-22.33-50.89-5.85-13.42-11.64-26.87C760.09,346.21,760.82,345.19,768.2,345.34Z" transform="translate(-71.78 -23.54)"/><path class="cls-21" d="M785.62,640.75c1.46-2.72,2.87-5.11,4-7.62.76-1.62,1.91-1.48,3.3-1.36q26.1,2.37,52.2,4.68c5,.45,9.92,1.08,14.89,1.48,4.7.39,8.93-.23,13.2-3.1a21.82,21.82,0,0,1,14.68-3.77c2.32.27,2.73.82,1.6,3.11-2.49,5-5.32,8-11.74,6.1-4.53-1.34-9-.26-13.44,2.7-7.32,4.93-15.9,3.77-24.19,3C822.13,644.26,804.12,642.52,785.62,640.75Z" transform="translate(-71.78 -23.54)"/><path class="cls-16" d="M991.35,366.38c5.17-.86,7.55,2.32,9.25,7.7,6.87,21.68,14.15,43.23,21.32,64.81.55,1.64,1.34,3.41-.71,4.3-2.33,1-2.72-1.34-3.35-2.67q-16.07-33.94-32-68C983.29,367,984,366.25,991.35,366.38Z" transform="translate(-71.78 -23.54)"/><path class="cls-20" d="M595.72,358.07c0,11.45.57,22.93-1,34.33-.25,1.81.06,4-2.51,4.12-2.93.16-2.82-2.11-2.91-4.17q-1.05-23.88-2.14-47.75c-.19-4.14-.52-8.27-.8-12.4-.18-2.76.11-4.95,3.81-4.89,3.38.05,5.51,1.14,5.53,4.8C595.74,340.76,595.72,349.42,595.72,358.07Z" transform="translate(-71.78 -23.54)"/><path class="cls-21" d="M646.75,692.46l11.85.87c-.61.93-1.6,1.73-1.56,2.48.45,8.7-6.4,8.11-11.59,8.63-9.28.92-17.9-3.61-17.53-15.59.33-10.7,12.37-17.35,21-13.41,3.68,1.67,3.77,1.47,7.08.58a29.42,29.42,0,0,1-1.17,9c-2.35-4.05-3.68-8.42-9.07-8.33-3,.05-5.39.8-7.3,3.27-3.83,5-4.43,15.11-1,19.73a7.7,7.7,0,0,0,8.79,3.07c2.57-.73,3.27-2.82,3.7-5.33S648.28,694.12,646.75,692.46Z" transform="translate(-71.78 -23.54)"/><path class="cls-21" d="M848.39,692.9c.74,3.61-.12,6.38-.74,10.17-2.34-4.3-3.76-8.42-8.76-8.66-3-.15-5.37.26-7.35,3-4.08,5.55-5,14.17-1.52,19.69,1.69,2.69,4.12,4.26,7.5,3.81,1.9-.25,3.57-.85,4.32-2.84,1-2.63.14-5.48-2.49-7.92l12.18,1.16c-.65,1.41-2.91,1.72-2.56,3.75.86,5-2.3,5.83-6.28,6.5-5.83,1-11.61,1.75-16.62-2-6-4.52-7.13-12.88-3.19-19.7a14.62,14.62,0,0,1,18.76-6.52C843.93,694.17,846,695.46,848.39,692.9Z" transform="translate(-71.78 -23.54)"/><path class="cls-20" d="M811.45,359.87c-1.52,12.07,1,24.08.07,36.08-.11,1.57.85,4.24-1.86,4.42-2.9.2-1.89-2.54-2.22-4.09-1.93-9.21-1.86-18.65-3-27.95-.63-5.07-.82-10.2-1.08-15.32-.1-1.93-.34-4.23,2.52-4.58,2.51-.3,3.83,1,4.87,3.28C812,354.46,810.62,357.25,811.45,359.87Z" transform="translate(-71.78 -23.54)"/><path class="cls-21" d="M767.87,716c-8.78,0-15.88-6.11-15.63-13.86a13.92,13.92,0,0,1,14.07-13.81c9.31-.23,16.39,5.53,16.5,13C782.94,710.49,777.31,716,767.87,716ZM776,699.73a15,15,0,0,0-.22-2.46c-.77-4.34-2.89-7.38-7.76-7.33s-7.18,2.95-7.93,7.33c-.62,3.57-1.52,7.17-.57,10.83s3.12,6.34,7.05,6.64,6.47-1.41,7.83-5.34A25,25,0,0,0,776,699.73Z" transform="translate(-71.78 -23.54)"/><path class="cls-21" d="M792.69,698.28c.33,6.6-3.79,13.26,1.32,19.63h-9.38c6.32-3.62,5.29-8.79,5.3-13.44,0-4.49,4.14-9.86-3.28-13.46,6-.7,9.86.11,12.72,5.13,3,5.29,7,10,11.18,14.9-.93-6.06,4.91-12.44-2.3-18.48l9.25.66c-7,4.42-3.65,11.39-5.34,17-.61,2-.18,4.31-.53,6.43-.19,1.12.42,3-1.45,3.2-1.26.15-1.84-1.18-2.52-2.12q-6.21-8.66-12.48-17.27C794.64,699.68,794.46,698.53,792.69,698.28Z" transform="translate(-71.78 -23.54)"/><path class="cls-20" d="M1035.67,387.74c.75,6.88-1.54,15.41-1,24.05a1.19,1.19,0,0,1,0,.5c-.87,2.13-.2,5.91-3.06,5.95-3.57.05-1.9-3.65-2-5.55-.33-8.8-.21-17.62-.39-26.43-.07-3.46.31-6.92-.56-10.4-.75-3,1.52-4.89,4-5.3,3.22-.54,3,2.27,3,4.43C1035.69,378.65,1035.67,382.31,1035.67,387.74Z" transform="translate(-71.78 -23.54)"/><path class="cls-21" d="M686.84,700.68c.22,7.79.23,7.74-6.83,6.93-5.28-.6-10.58-1.06-16.39-1.63,6-3,4-8.4,4.48-12.84.56-4.68,3.16-9.76-2.57-14,6.14.63,11.42,1.22,16.71,1.72,6.11.57,6.12.54,4.06,7.12-1.57-.08-1-1.42-1.32-2.22-1.25-2.85-7.16-5.22-9.41-3.83-.64.4-2.14,9.21-1.46,9.64,3.08,1.9,5.31.23,7.26-2.3-.19,3.07-.36,5.88-.53,8.72-.26.06-.72.21-.75.15-1.16-2.38-3.28-5.08-5.52-3.7s-1.47,5.16-1.51,7.92,2,3.44,4.41,3.63C682,706.35,683,705.9,686.84,700.68Z" transform="translate(-71.78 -23.54)"/><path class="cls-21" d="M709,684.7c-1.39.44-3.57-1.49-4.17,1.15-.67,2.89-2,6.72-.26,8.63,1.94,2.08,5.05.36,6.79-3.76L710.81,701c-.38,0-.86.18-.9.09-1.17-2.26-2.8-5.17-5.38-3.76s-1.2,5.14-1.53,7.83,1.73,3.28,3.82,3.65c4.45.79,7.64-1,9.61-5.83,1,8.08,1,8-5.64,7.37-5.62-.56-11.26-1-17.06-1.5,4.92-3.87,6.44-22.45,1.6-26.85L709,683.2Z" transform="translate(-71.78 -23.54)"/><path class="cls-21" d="M736,712.67l-10.92-.91c5-5,6-22.62,1.5-26.56,4.27-.72,8.28.83,13.75.86-4.52,1.53-5.23,4.16-5.33,7.37-.13,4-.66,7.94-1,11.91-.21,2.24,0,4.33,2,5.76Z" transform="translate(-71.78 -23.54)"/><path class="cls-17" d="M718.49,670.73c1.87,1.62,3.14,1.48,4.53-.85,1-1.67,1.45-3.55,2.51-5.45,3.24,2.44,1.45,6.83,4.42,9.06-.57.28-1,.58-1.08.51-4-4-8.74-.24-13.1-1.07-2.74-.52-3.63-1.27-2.65-3.9.22-.6,0-1.47.31-1.93.9-1.2-1.41-3.32.68-3.69,2.63-.45.95,2.12,1.61,3.12s1.95,1.3,1.58,2.75c-.63.48-2.33-.86-2,.77C715.62,672.17,717.17,671.54,718.49,670.73Z" transform="translate(-71.78 -23.54)"/><path class="cls-21" d="M758.35,675.94c-1.88.43-2.47-.37-3.19-.52-1.57-.32-4.1,1.53-4.6,0-.67-2.14,0-4.84.51-7.18s2.67-1.17,4-1c1.66.24,3.07,2.1,1.94,3.14C754.34,672.85,756.66,674.14,758.35,675.94Z" transform="translate(-71.78 -23.54)"/><path class="cls-17" d="M703.53,662.29c2.37,1.31,8.9-1.23,4.71,5.75-.37.6,1.23,2.38,2,3.78-2,.67-3.92-2.73-6-.22-.25.3-2.26.27-1.64-1.85C703.23,667.44,703.22,664.94,703.53,662.29Z" transform="translate(-71.78 -23.54)"/><path class="cls-17" d="M747.44,667.2c-1,1-2.52-1.22-3.2.56s.59,2.19,2,2.39c-1.13,2.21,2.79,3.36,1.58,4.71-1.72,1.9-4.33-.42-6.88.14,1.36-1.81,1.25-3.74,1.33-5.56C742.43,665.14,742.66,665,747.44,667.2Z" transform="translate(-71.78 -23.54)"/><path class="cls-17" d="M680,668c3.85-1.46,1-4.65,2.22-7.26,1.63.33,4.26-.94,5.42,1.23.52,1-.9,4.19-2,4.5-1.82.52-2.54,6.46-5.62,1.49Z" transform="translate(-71.78 -23.54)"/><path class="cls-17" d="M736,712.67l0-1.57c4.87,1.31,9,.53,11.71-4.84.54,7.68.54,7.69-5.89,7.08C739.88,713.15,737.93,712.89,736,712.67Z" transform="translate(-71.78 -23.54)"/><path class="cls-17" d="M648.79,657.51c2.33.21,3.48.37,4.63.4s2.14.18,1.63,1.62c-.82,2.33-1.09-.52-1.68-.22-2.13,1.08-.93,3.13-1.35,4.71-.24.9,1,2-.08,2.65a3.19,3.19,0,0,1-2.41-.14c-2-.87.06-1.87.05-2.84C649.55,661.79,650.4,659.88,648.79,657.51Z" transform="translate(-71.78 -23.54)"/><path class="cls-17" d="M700.63,667.47c-.64,2.74-2.77,3.58-5.18,3.49a4.8,4.8,0,0,1-4.15-3.16c-.84-2.11.22-3.7,2.16-5,1.81,2.1-1.18,5.39,1.95,6.73C697.78,670.56,697.37,664.58,700.63,667.47Z" transform="translate(-71.78 -23.54)"/><path class="cls-17" d="M661.84,664.75c-1,.77,2.62,2.64-.47,3-3.32.37-1.82-1.68-1.57-3.26.29-1.81-1.55-2.84-2-4.42-.18-.65-1.26-1.46.08-1.91.71-.23,2.31,0,2.14.52C659.16,661.25,663.8,661.93,661.84,664.75Z" transform="translate(-71.78 -23.54)"/><path class="cls-17" d="M638.74,659.62c-1.23-1-1.66-3.71-3.75-2.14-2.41,1.81-2.34,4.47-.48,7.83-2.92-1.33-4.72-2.59-4.2-4.94a5.46,5.46,0,0,1,5.37-4.34C637.58,655.94,639.5,656.33,638.74,659.62Z" transform="translate(-71.78 -23.54)"/><path class="cls-17" d="M709,684.7l0-1.5c1.14.06,2.3,0,3.43.2,5.6.79,6,1.75,3.21,8.26C715.13,687.16,712.47,685.47,709,684.7Z" transform="translate(-71.78 -23.54)"/><path class="cls-17" d="M643.57,656.85c.47.38,2.08-.41,1.32,1.08a9,9,0,0,0-.54,7c.36,1.18-.5.93-1,1-.78.08-2.14.23-2.11-.63a69.7,69.7,0,0,1,.9-8.13C642.22,657,643.08,657,643.57,656.85Z" transform="translate(-71.78 -23.54)"/><path class="cls-17" d="M680.06,668c-2.75-.61-5.87,3.43-8.34-.68l.54-.54c1.44.46,2.86,2,4.41.33,1.81-1.89,1-3.88.09-5.84l.65-1c3.81,1.59,1,5.4,2.6,7.74Z" transform="translate(-71.78 -23.54)"/><path class="cls-17" d="M734.37,665.24c3.8,2.13.55,5.74,1.69,8.52.33.81-1.55.58-2.44.44s-1.2-.36-.4-1.45c1.41-1.94.51-4.39.67-6.62Z" transform="translate(-71.78 -23.54)"/><path class="cls-17" d="M671.72,667.3c-3.42-2.72-1.15-4.75.84-6.81l.74.81a12.63,12.63,0,0,0-1,5.46Z" transform="translate(-71.78 -23.54)"/><path class="cls-17" d="M733.89,666.13c-1.37-.42-1.5,1.53-2.64,1.36a2.31,2.31,0,0,1-.16-1.69c.78-1.56,2.11-.79,3.28-.56Z" transform="translate(-71.78 -23.54)"/><path class="cls-17" d="M672.56,660.49c1.58-1,3.22-.61,4.85-.21l-.65,1-3.46,0Z" transform="translate(-71.78 -23.54)"/><path class="cls-22" d="M1543.69,1756.84c-10.78,1.93-20.72-1.67-30.81-4.37-6.64-1.77-11.19-6.78-14.22-11.93a161.52,161.52,0,0,1-14.39-31.14c-.36-1.1-.5-2.27-.77-3.39-.42-1.76,0-3.72,1.33-4.41,1.54-.78,2.53,1.2,3.42,2.28,4.39,5.4,7.9,11.59,13.3,16.07,12.31,10.2,26.43,14.08,42.21,10.89,5.7-1.15,8.65-5.86,11.77-10.18.8-1.09.08-2.19-.35-3.29-7.26-18.5-10.72-37.74-12.35-57.52a379.77,379.77,0,0,1-.57-52.35c1.85-33.5,7.8-66.44,20.08-97.87,5.94-15.22,13.47-29.64,25.61-41.15,7-6.62,15.25-9.17,24.3-7a22.22,22.22,0,0,1,16,13.68c3.63,8.74,8.88,16.76,11.76,25.86.35,1.1,1,2.25.93,3.31-1.25,12.14,3,23.62,4.27,35.44.64,5.88-1.11,11.45-1.22,17.21-.14,7.48,1.25,14.85,1.13,22.36-.35,20.1-2.89,39.9-6.48,59.65-2.43,13.35-3.91,26.91-8.71,39.69-8.7,23.15-20.33,44.54-37,63.24-8.15,9.16-17.81,12.89-29.42,14.33C1556.88,1757,1550.28,1756.66,1543.69,1756.84Zm86.4-171.29a179.21,179.21,0,0,0-3.32-36.06c-1.93-10.41-4.42-20.9-10.91-29.65-8.11-10.92-16.85-13.54-27.62-2.67-7,7-11.26,15.7-14.91,24.57-9.36,22.76-12.37,46.93-14.22,71.22-1.07,13.92.7,27.8,2.92,41.55,2,12,5.07,23.71,12.2,33.88,6.69,9.55,17.19,10.3,25.59,2.39s13.28-18.14,17.27-28.75C1626.36,1637.38,1629.28,1611.64,1630.09,1585.55Z" transform="translate(-71.78 -23.54)"/><path class="cls-17" d="M1510.93,1479.75c.2-7.8,3.87-13.7,8.23-18.76,4.69-5.46,9.2-11.12,15.21-15.56,7.11-5.26,15-6.65,23.24-7.37,9.9-.86,19.45,1.49,29.05,3.31,5.53,1,11,2.36,16.51,3.53,1.09.23,2.57-.07,2.69,1.54.11,1.42-1.26,1.79-2.24,2.37a9.14,9.14,0,0,1-6.28,1.06c-5.53-.95-11.13-.85-16.65-1.26-6.69-.5-12.76,1.26-19,2.19a188.67,188.67,0,0,0-19.86,4.5c-11.33,3-19.31,10.58-26.16,19.58C1514.44,1476.45,1513.66,1478.33,1510.93,1479.75Z" transform="translate(-71.78 -23.54)"/><path class="cls-23" d="M1630.09,1585.55c-.81,26.09-3.73,51.83-13,76.48-4,10.61-8.76,20.74-17.27,28.75s-18.9,7.16-25.59-2.39c-7.13-10.17-10.25-21.85-12.2-33.88-2.22-13.75-4-27.63-2.92-41.55,1.85-24.29,4.86-48.46,14.22-71.22,3.65-8.87,7.92-17.53,14.91-24.57,10.77-10.87,19.51-8.25,27.62,2.67,6.49,8.75,9,19.24,10.91,29.65A179.21,179.21,0,0,1,1630.09,1585.55Z" transform="translate(-71.78 -23.54)"/></g></g></g><g id="binLidColour"><g id="greenLid"><g id="lidColor_Image" data-name="lidColor Image"><path class="cls-24" d="M1168,244h-15c-.23-.75-.81-.91-1.52-1l-32.33-3-90.53-8.53-90-8.46-90.05-8.43Q803.28,210.31,758,206q-45-4.23-90-8.41c-30.68-2.87-61.37-5.62-92-8.73-11.33-1.15-22.85-.93-33.71-5.87a240,240,0,0,0-31.06-12.09c-3.58-1.06-7.38-8.86-6.59-12.55a230.66,230.66,0,0,1,8.92-29.56c.86-2.42,2.09-4,4.5-4.82,9.58-3.22,17.06-9.24,23.46-17,2.27-2.75,3.54-5.35,3.55-8.89a103.64,103.64,0,0,1,3.31-25.67c1.34-5.18,3.83-8.87,8.94-11.14,11.41-5.08,22.63-10.6,33.93-15.93a74.75,74.75,0,0,1,10.35-3.55c10-3,20.19-1.3,30.29-1.7,3.67-.14,6.74,1.81,9,4.72C643,47.61,645,50.46,647,53.33s4,5.38,7.61,6c3.92.7,7.84,1.34,11.85,1.65,14.12,1.12,27.78-1.44,41.57-4,45.5-8.37,91-16.62,136.65-24.22,39-6.49,78.37-10.5,117.89-8.94,84.75,3.36,169.46,7.59,254.16,11.77,40.57,2,81.3,2,121.51,9,10.22,1.78,20.12,4,28.81,10.36,5.07,3.68,10,7.91,16.29,9.58a119.71,119.71,0,0,0,30.58,4.5q85.24.11,170.49.26c8.82,0,17.63-.23,26.44.84,8.47,1,15.15,4.84,18.2,12.82,5.27,13.81,9.85,27.88,14.66,41.86.33.94,1.35,2.66-.32,3-4.84.84-5.67,5.31-7.89,8.39a11.33,11.33,0,0,1-7,4.87q-167.71,41.66-335.35,83.61c-40.29,10.15-80.77,18.38-122.54,18.38C1169.65,243.09,1168.52,242.75,1168,244Z" transform="translate(-71.78 -23.54)"/></g><g id="greenLidShadows_Image" data-name="greenLidShadows Image"><path class="cls-25" d="M1229,219c-8.5-1.61-12.77-6.16-13.75-15.34-.66-6.18-4.68-12-7-18-.75-2-2.3-2.68-3.87-3.55a145.6,145.6,0,0,0-33.57-13.78c-18.16-4.75-26.87-17.62-30-34.8-1.67-9.11.85-18,6.19-25.75,1.37-2,3.79-1.91,5.86-2.38a171.42,171.42,0,0,1,34.17-4c30.44-.74,59.38-8.64,88.4-16.71,20.36-5.67,40-13.41,59.93-20.21,11.39-3.88,21.46-.48,27.92,9.65,2.34,3.67,2.21,6.72-.76,10.32-5.5,6.68-13.18,10-20.18,14.45-5.64,3.54-11.48,6.76-17.13,10.29-2.35,1.47-4.26,3.59-3,6.65,1.13,2.8,3.56,3.23,6.49,2.28,0,5.15-3.22,9.3-3.22,14.21,0,2.28-2.16,1.46-3.52,1.55-4.19.26-8.48-.59-13.55.87,7.37,4.27,14,3.21,20.72,1.59.16,0,.4-.08.45-.19,3-7.08,7.56-2.16,11.13-1,9.84,3.08,19.54,6.65,29.24,10.19a15.33,15.33,0,0,0,8.76.71Q1479.83,124.5,1581,103.1c5.18-1.1,8.07-4.13,9.37-9.14,2.11-8.06,7.11-10,14.64-6.16,5.94,3.07,9.77,7.41,9.2,14.51a100.62,100.62,0,0,1-1.41,12.89c-1.71,8-8.4,11-15.19,12.74-39.27,10.09-78.62,19.9-117.95,29.75q-111.21,27.84-222.43,55.63c-8.36,2.1-17,2.94-25.2,5.68Zm98-64.81.15-1.56c-5.91-2.51-11.83-5-17.73-7.54-3.65-1.57-7.82-2.4-10.66-5.26-6.08-6.11-13.33-7.88-21.51-6.54-28.76,4.71-57.51,9.56-86.28,14.22-4.3.7-6.55,2.61-6.75,7.08s2.67,5.6,6.13,6.48q19.62,5,39.21,10a21.43,21.43,0,0,0,9.85.23c19.93-3.94,39.88-7.73,59.81-11.61C1308.53,157.92,1317.78,156,1327,154.19Zm-37.71-54c-16.08-1.7-32.57,1.66-49.2,2.24-19.77.7-39.37,4.17-59.18,5-5.29.22-10.7.61-15.67,2.77-4.81,2.09-8.19,5.1-8.61,11.06-.76,11,1.82,21.84,1.28,32.8a4,4,0,0,0,2.61,4q8,2.81,16.17,5.15a4.12,4.12,0,0,0,4.77-1.93,4.07,4.07,0,0,0-.35-5.1,6.42,6.42,0,0,1-1.73-4.51c.13-6.16-.05-12.34.26-18.49.51-10,.64-10,10.53-12.86a4.25,4.25,0,0,0,1-.27c7.44-4.46,15.9-4.39,24-4.8,19.92-1,39.9-1.34,59.74-3.47,11.13-1.2,22.3-1,33.42-1.85,3.83-.31,8.13-.4,8.33-5.78.14-3.59-2.92-5.18-8.77-4.89S1296,99.81,1289.33,100.17Z" transform="translate(-71.78 -23.54)"/><path class="cls-26" d="M665.39,100.33c-3.23-3.15-7.3-2.66-10.89-2.87-11-.65-22-1-33-1.13-3.17,0-5.73-.59-7.92-3-.89-1-2.35-1.57-1.56-3.16s2.24-.8,3.47-.42c5.77,1.77,11.54,3,17.61,1.38,1.34-.36,2.72-.66,3.52-1.63,3.61-4.35,8-3.67,13-3.08,12.23,1.46,24.56,2.16,36.84,3.1,3,.23,6.07.88,6.18,4.41.11,3.31.14,6.71-4,8.72-11.25,5.42-21.94,12.11-33.42,16.92-20.09,8.43-40.71,10.76-61.44,1.38,6.25-2.81,6.27-2.93,20.43-.78A18.45,18.45,0,0,0,624.85,119q19.39-8.66,38.78-17.32A10.25,10.25,0,0,0,665.39,100.33Z" transform="translate(-71.78 -23.54)"/></g><g id="greenLidOputline_Image" data-name="greenLidOputline Image"><path class="cls-9" d="M1144,238c-2.57-2.76-6.25-2.85-9.45-3.17-10.55-1-21.16-1.45-31.75-2.17-19-1.28-38-2.76-57.09-3.87-16.73-1-33.42-2.15-50.09-3.85-11.54-1.18-23.19-1.34-34.77-2.24-18.84-1.48-37.67-3.18-56.5-4.8q-17.6-1.52-35.2-3.08c-18-1.58-36-2.93-53.95-4.95-15.3-1.73-30.68-2.73-46-4.28-17.61-1.78-35.19-3.89-52.79-5.73-11.2-1.17-22.43-2.05-33.63-3.19-15.14-1.55-30.27-3.28-45.42-4.83-11.2-1.14-22.43-2-33.62-3.2q-25.92-2.7-51.8-5.64c-8.89-1-17.76-2.14-26.64-3.15-6.51-.74-12.5-3.15-18.54-5.44-1.62-.61-1.69-2.4-2.76-3.41v-2c1.59-1.95,3.68-1.83,5.92-1.61q38.73,3.81,77.47,7.55,50.7,4.91,101.39,9.74c36.64,3.48,73.3,6.87,109.94,10.39,33,3.16,66,6.48,99,9.67,22.36,2.16,44.72,4.16,67.07,6.34,38.91,3.81,77.84,7.48,116.71,11.63,29.15,3.11,58.24,6,87.61,3.65,9-.7,18-.55,27-.92,25.86-1.08,51.22-6.35,76.24-11.93,32.87-7.32,65.83-14.75,98.15-24.25,25.46-7.49,51.28-13.38,76.89-20.19,37.24-9.91,74.74-18.88,112.14-28.18,10.7-2.66,21.49-4.93,32.14-7.75a8.7,8.7,0,0,1,6.26.65c-4.27,5.17-11,4.81-16.75,6.59-23.11,7.2-46.37,14-69.61,20.74-12.33,3.61-24.78,6.81-37.09,10.48-41.71,12.45-84,22.84-126.28,33-34.75,8.33-69.16,18.08-104,25.93-21.37,4.81-43.35,7.72-65.59,6.06-3.63-.27-8-1.14-11.52,1.43Z" transform="translate(-71.78 -23.54)"/><path class="cls-9" d="M1631,135c-4,2.32-6.15,1.74-7.33-3.35a118.67,118.67,0,0,1-3.26-27.59,26.94,26.94,0,0,0-4.08-14.6c-2.67-4.42-5.78-6.36-11.32-7.17-25.63-3.75-51.39-2.24-77.08-2.82-32.48-.73-65-.46-97.49-.7-17-.13-34-.48-51-.64a9.82,9.82,0,0,1-7.13-2.9c-5.16-4.93-10.47-9.69-15.68-14.57-1.23-1.15-2.55-2.87-4.16-2.37-3.61,1.15-6.48-.23-9.47-1.75-3.3-1.67-6,.54-8.22,2.11a71.29,71.29,0,0,1-22.39,10.26c-9.79,2.76-19.39,6.27-29.29,8.72-21.29,5.27-42.49,11-64,15.38a192.25,192.25,0,0,1-35,3.56c-10.12.16-20.32-.24-30.34.87-6.87.77-13.65,2.1-20.64,2.39-14.53.62-29,1.74-43.58,1.63-11.09-.09-22.19-.09-33.28-.23-11.47-.15-22.95-.93-34.4-.53-17.55.62-34.87-1.27-52.25-3.07-16-1.66-32.11-2.2-48-4.29-15.53-2-31.16-2.92-46.71-4.63-9.76-1.07-19.6-1.85-29.42-2.56-8.11-.59-16.31-1.3-24.41-2.52a323.07,323.07,0,0,0-33.58-3.11c-2-.1-3.88-.74-5.84-1-11.23-1.47-21,1.09-29.59,8.89C746,93.93,739,98.36,732.41,103.36c-1,.78-1.95,1.46-3.06.62s-.84-2.07-.13-3.12a25.17,25.17,0,0,1,2.34-3.17c8.42-9,17.33-17.5,26.45-25.79,5-4.53,11-4.57,17-3.67,27.66,4.14,55.57,5.64,83.37,8.3,29.28,2.8,58.54,5.86,87.83,8.54,10.75,1,21.56,1.32,32.35,1.81,15.11.69,30.18,1.73,45.12,4.19a21.37,21.37,0,0,0,3.49.1c22.31-.19,44.61,0,66.9,1,19.06.8,37.91-1.46,56.86-3.09,17.55-1.5,35.28-.8,52.91-1.92,6.86-.43,13-4.05,19.86-4.56,12.68-.94,24.42-6.08,36.73-8.84,20.21-4.54,39.71-11.59,59.32-18.2.94-.32,2.14-.46,1.86-1.79s-1.52-1-2.47-1.08-2,0-3,0c-23.62.05-47.12-1.67-70.61-3.92-10.4-1-20.86-1.35-31.27-2.23-13.82-1.18-27.63-2.65-41.45-3.9-5.43-.49-10.88-.74-16.33-1.08-1.62-.1-3.83.28-3.75-2.09s2.31-2,3.91-1.92c13.24.61,26.49,1.17,39.72,2,19.55,1.14,39.09,2.52,58.64,3.66,10.84.63,21.7.82,32.54,1.49q21.26,1.32,42.48,3.16c3.11.28,6.28.4,9.31.39,10.49,0,17.84,5.73,25.19,12,4.28,3.64,8.94,6.83,13.47,10.18,1.76,1.3,3.86.81,5.82.81,42.5,0,85-.45,127.49.26,28.72.48,57.42,2.51,86.12,4.15,8.84.51,17.62,1.08,25.15,7.53,4.36,3.72,6.17,8.28,8.47,12.91Z" transform="translate(-71.78 -23.54)"/><path class="cls-9" d="M947,27c1.91,1.4,4.39,2.51,3.42,5.6-.92,2.91-3.53,1.83-5.51,2.12Q926.48,37.42,908,40c-18.33,2.59-36.68,5.1-55,7.72-14.43,2.06-28.85,4.24-43.27,6.37-17,2.51-34.12,4.85-51.13,7.61-13.75,2.24-27.38,5.2-41.12,7.45-21.43,3.52-42.62,8.19-63.88,12.55-7.66,1.57-13.17,7.08-19.77,10.55a17.52,17.52,0,0,1-10.89,2c-1.63-.19-3.26-.55-4.9-.61-5.79-.22-7.53-1.93-7.61-7.93-.08-5.76,0-11.52,0-18.27-5.17,3.47-10.1,5.81-13.69,9.46-3.87,3.93-3.27,9.92-3.8,15.12-.56,5.45-.41,11-.65,16.46a27,27,0,0,1-.73,3.84,2.38,2.38,0,0,1-2.87,2.11c-1.62-.16-2.16-1.27-2.27-2.77-.94-12.11-1.13-24.25-1.1-36.4,0-4.2,3.63-5.67,6.11-7.7,4.29-3.53,8.55-7.19,13.66-9.63a4.39,4.39,0,0,0,2.75-3.26c.17-1.09,1.54-2.09.78-3.22s-2.4-1.13-3.66-.85a54.3,54.3,0,0,0-9.07,2.41c-8.73,3.57-17.7,6.86-25.43,12.31C564.6,69.49,559.11,73.48,559,82.7c-.15,12.65-2.88,25.26-4.43,37.9-.23,1.87-1,3.33-2.73,3.74-2.06.48-2.12-1.49-2.73-2.81-3.46-7.51-1.93-15.31-1.19-23a134.65,134.65,0,0,1,4.18-24c1.66-5.88,3.71-10.84,10.26-13.48,10.74-4.31,21-9.69,31.57-14.56,4.08-1.9,8.32-3.8,12.9-2.9,8.54,1.68,17.25.07,25.79,1.8,5.39,1.09,9.39,6.42,9.91,13.82.36,5.22,1.33,10.38,1,16.63,7-6.92,15.56-5.45,23.13-7.11,21.64-4.74,43.63-7.69,65.42-11.68,18.51-3.38,37.15-6.18,55.78-8.94,13.55-2,27.15-3.89,40.67-6.23,17.71-3.07,35.45-6.12,53.28-8.3,18.56-2.27,37-5.71,55.86-5.19,1.21,0,2.75.22,3.36-1.44Z" transform="translate(-71.78 -23.54)"/><path class="cls-9" d="M1143.6,189.46l-95.91-6.6c-55.14-3.79-110.3-7.38-165.43-11.41-57.1-4.18-114.29-7.29-171.28-13-59-5.89-117.93-11.66-176.88-17.64-5.76-.59-11.4-2.31-17.09-3.52-2-.43-4.31-.81-3.71-3.59.56-2.63,2.58-3.8,5.27-3.43,4.44.61,8.85,1.38,13.29,2,25.18,3.48,50.59,4.25,75.9,6.3,29,2.34,57.84,5.82,86.68,9.54,14.42,1.85,29,2.92,43.55,3.54,19.25.83,38.45,3,57.67,4.44,19.73,1.51,39.49,2.73,59.2,4.38,24.82,2.07,49.6,4.66,74.43,6.63,22.05,1.75,44.14,2.88,66.21,4.43,20.88,1.46,41.74,3.2,62.63,4.65,19.25,1.35,38.5,2.68,57.81,2.81a177.8,177.8,0,0,1,28.2,2.75c2.92.49,6.7,1.09,6,5C1149.61,189.91,1145.89,189,1143.6,189.46Z" transform="translate(-71.78 -23.54)"/><path class="cls-9" d="M1310.62,101.61c-8.1.44-15.68.73-23.23,1.3-10.07.76-20.11,1.8-30.17,2.62q-25,2-50,3.94-14.12,1.08-28.25,2.07-8.17.57-16.36,1c-1.62.09-3.85.36-3.9-1.94,0-2,1.7-3,3.78-3.19,9.38-.94,18.74-2,28.12-2.94,21.35-2.1,42.69-4.21,64.05-6.19,18-1.68,36.09-4,54.19-4.56,18.88-.59,19.59,4.24,23.53,21.28,1.28,5.53.46,11.61.21,17.42-.21,4.64-8.43,9.34-13.59,7.88-7-2-13.86-4.31-20.86-6.23-3.29-.91-4.53-2.93-4.71-6.06-.1-1.48-.48-3-.54-4.44-.23-5.06-3.16-6.44-7.69-5.87-21.93,2.75-44,4-65.94,7-8.73,1.2-17.57,1.62-26.36,2.3-8.63.66-10.42,2.4-10.28,11,.11,6.81-.43,13.58-.95,20.36-.14,1.81.17,4-2.43,4.13s-4.52-1.86-4.49-3.86c.13-8.56-2-17-1-25.59.13-1.15.39-2.29.45-3.44.46-9.09,6.2-14.54,15.31-15.27,22.18-1.79,44.34-3.89,66.52-5.76,9.9-.84,19.83-1.36,29.73-2.13,7.26-.56,14.5-1.33,21.76-1.89C1309,104.38,1310,103.86,1310.62,101.61Z" transform="translate(-71.78 -23.54)"/><path class="cls-8" d="M1236.11,181.9a13.75,13.75,0,0,1-3.5-1.05c-1.55-.95-4.34-1.15-3.89-3.73.39-2.26,2.64-2.52,4.69-2.93,37.56-7.51,75-15.42,112.68-22.48,16.48-3.1,32.78-7,49.24-10.15,2-.37,4.51-.94,5,1.69s-2.27,2.11-3.91,2.6c-21.8,6.44-44,11.2-65.94,17.23-27.86,7.66-56.55,10.93-84.77,16.69C1242.59,180.4,1239.53,181.13,1236.11,181.9Z" transform="translate(-71.78 -23.54)"/></g><g id="lidHighlights"><path class="cls-27" d="M842.84,54.43c9.68-1.56,18.75-3,27.83-4.47,27-4.24,53.83-9.23,80.91-12.43a368.94,368.94,0,0,1,72.2-1.91c9.94.77,20,.31,29.9,1.26,19,1.82,38,3.53,57.08,5.31.24,0,.44.39,1,.92-4.13,1.34-8,.74-11.87.52q-22.65-1.29-45.27-2.83c-8.46-.56-17-2.12-25.34-1.67-10,.54-20,0-29.91.88-13.08,1.13-26.23.89-39.29,2.72-20.41,2.86-40.9,5.24-61.38,7.63-16.67,2-33.38,3.65-50.08,5.36C847,55.9,845.06,56.42,842.84,54.43Z" transform="translate(-71.78 -23.54)"/><path class="cls-27" d="M954.53,159.75c1.52-1.42,3.42-.77,5.12-.79,23.14-.28,46.19,1.37,69.25,2.84,7.3.46,14.61.39,21.93.9,13.42.92,26.92.86,40.39,1.23,6.81.19,13.59,1.68,20.41.9,5.49-.63,11.56-.34,15-6.16,2.46-4.2,1.54-8.76,1-13.16a51.4,51.4,0,0,1,.19-14.86c2.54,4.7,2.28,10,3,15s.84,9.93,1.12,14.91c.48,8.78-4.54,13.86-13.31,13.17-23-1.83-46-3.91-69-5.71-19.54-1.53-39.12-2.74-58.67-4.22-11.43-.86-22.85-2-34.27-3C955.83,160.74,954.9,160.9,954.53,159.75Z" transform="translate(-71.78 -23.54)"/><path class="cls-27" d="M968.38,103.68c-6.11,0-12.29.58-18.32-.13-11.44-1.35-23-1.18-34.38-1.41-21.38-.43-42.42-3.59-63.59-5.76-25.13-2.57-50-7.63-75.42-7.68-6.63,0-12.41,1-17.61,5.33a43.09,43.09,0,0,1-10.79,6.12c-.94-1.74.47-2.25,1.27-2.88,4.05-3.2,8.52-6,12.15-9.57,4.75-4.74,10.08-5.47,16.34-4.78Q815.47,87,853,90.72c25,2.5,50,4.81,75,7.28,13.51,1.33,27,2.83,40.51,4.25C968.42,102.73,968.4,103.2,968.38,103.68Z" transform="translate(-71.78 -23.54)"/><path class="cls-27" d="M1414.84,85c1.89-.64,130.07,1.88,131.58,2.74-6.91,1.73-13.53,2.15-20.08,3-16.43,2-32.82.71-49.23-.62-12.9-1-25.86-1.5-38.79-2.27-6.73-.41-13.41-1.81-20.22-1.09A3.13,3.13,0,0,1,1414.84,85Z" transform="translate(-71.78 -23.54)"/><path class="cls-27" d="M636.31,136.07l-72.24-6.59c5.15-2.41,58.94,1.71,72.34,5.17Z" transform="translate(-71.78 -23.54)"/><path class="cls-27" d="M564,80.59c.2-2.67.45-5.23,3-6.13a10.45,10.45,0,0,1,9.17.68c2,1.24.21,2.19-1,2.74-2.41,1.12-4.93,2-6.69,4.21-.86,1.08-1.21,3.31-3.09,2.64S564.26,81.88,564,80.59Z" transform="translate(-71.78 -23.54)"/><path class="cls-27" d="M524.58,164.13c-5.49,1.14-10.24,1.5-13-2.1-2.65-3.43.7-7.38,2-11.51C511.6,159.21,519,160.46,524.58,164.13Z" transform="translate(-71.78 -23.54)"/></g></g></g></svg>